<?xml version="1.0" encoding="utf-8"?>
<!-- Generator: Adobe Illustrator 16.0.0, SVG Export Plug-In . SVG Version: 6.00 Build 0)  -->
<!DOCTYPE svg PUBLIC "-//W3C//DTD SVG 1.1//EN" "http://www.w3.org/Graphics/SVG/1.1/DTD/svg11.dtd">
<svg version="1.1" id="Layer_1" xmlns="http://www.w3.org/2000/svg" xmlns:xlink="http://www.w3.org/1999/xlink" x="0px" y="0px"
	 width="832.074px" height="227px" viewBox="0 0 832.074 227" enable-background="new 0 0 832.074 227" xml:space="preserve">
<g>
	<path fill="#004F87" d="M218.277,57.835h27.451v-5.43h12.066v5.43h27.451v48.567c0.198,6.032-2.414,8.847-7.843,8.446h-19.909v5.43
		h-11.161v-5.129h-28.054V57.835z M246.03,67.79h-16.591v38.009h16.591V67.79z M257.493,105.497h15.384
		c0.801,0.202,1.207-0.4,1.207-1.811V67.79h-16.591V105.497z"/>
	<path fill="#004F87" d="M294.897,51.501h66.666v62.442c0,4.021-2.111,6.033-6.334,6.033h-60.332V51.501z M305.757,60.55v50.98
		h42.835c1.607,0.405,2.31-0.401,2.112-2.413V60.55H305.757z M308.472,73.823v-8.748h39.517v8.748h-15.988v6.938h15.686v8.446
		h-15.686v10.257h5.43c0.801,0.202,1.207-0.302,1.207-1.509v-4.826h9.05v9.05c0.198,4.426-1.711,6.438-5.731,6.033h-33.484v-8.748
		h13.273V89.207h-13.273v-8.446h13.273v-6.938H308.472z"/>
	<path fill="#004F87" d="M379.663,78.046h-8.446v-8.748H386.3l3.62-4.524h13.575l-3.62,4.524h38.913v9.05H393.54l-7.542,9.653
		h14.178V82.27h13.272v5.731h25.339v9.954h-25.339v6.033h25.039v9.653h-25.039v7.541h-13.272v-7.541h-29.261v-9.653h29.261v-6.033
		h-29.563v-9.351L379.663,78.046z M371.82,65.075V51.802h66.967v13.575h-11.463v-5.128h-43.74v4.826H371.82z"/>
	<path fill="#004F87" d="M447.535,111.53V53.009h67.27V76.84c0.4,5.835-2.615,8.55-9.049,8.145h-46.455v6.637h26.545l-0.604-4.224
		h12.066l0.906,4.224h17.193v9.351h-15.686l1.508,7.542c0.4,2.013,1.607,2.818,3.619,2.413h10.258v9.352h-16.289
		c-5.633,0.197-8.65-2.112-9.051-6.938l-2.412-12.368h-28.055v6.637c-0.203,2.818,0.904,4.025,3.318,3.62h19.607v9.05h-25.34
		C449.648,121.079,446.527,118.166,447.535,111.53z M503.945,61.757h-44.645v13.574h41.629c2.008,0.203,3.016-0.904,3.016-3.318
		V61.757z"/>
	<path fill="#004F87" d="M524.457,62.662h36.199v9.652c0.199,5.836-2.012,8.551-6.637,8.145h-29.563V62.662z M560.355,82.873v29.863
		c0.4,4.827-1.711,7.037-6.336,6.637h-4.826v-5.731h1.207c0.604,0,0.904-0.4,0.904-1.207v-1.81h-4.223v8.748h-9.049v-8.748h-5.129
		v8.748h-8.447v-36.5H560.355z M560.959,60.249h-35.898v-7.542h35.898V60.249z M551.305,101.575h-3.922
		c-3.016,0.604-4.326-0.905-3.92-4.524v-6.033h-1.811v6.033c0.197,3.422-1.41,4.93-4.826,4.524h-3.922v1.811h18.4V101.575z
		 M532.904,91.018v3.318h0.904c1.004,0,1.51-0.5,1.51-1.509v-1.81H532.904z M534.715,70.203v3.017h14.781
		c1.004,0.203,1.508-0.302,1.508-1.508v-1.509H534.715z M549.496,91.018v2.413c0,1.009,0.301,1.409,0.904,1.207h0.904v-3.62H549.496
		z M573.627,56.931v-5.43h9.352v5.731h10.258v35.595c0.602,5.835-1.811,8.348-7.24,7.542h-3.621v11.161
		c1.406,0.202,2.113-0.302,2.113-1.509v-7.239h8.445v10.558c0.801,4.826-1.811,6.938-7.844,6.335h-23.227v-8.145h11.162v-11.463
		h-10.861V56.931H573.627z M573.326,66.281h-2.111v25.038h2.111V66.281z M582.979,91.319h0.604c0.801,0.202,1.207-0.198,1.207-1.207
		V66.583h-1.811V91.319z"/>
	<path fill="#004F87" d="M669.855,85.89h-68.174v-8.748h68.174V85.89z M601.982,64.17H605c1.004,0.203,2.008-0.4,3.016-1.81
		l7.24-10.859h43.439l5.127,10.256c0.604,1.81,1.811,2.616,3.621,2.413h2.412v8.748h-6.637c-4.025,0.203-6.537-1.004-7.541-3.62
		l-4.525-9.049h-29.26l-5.732,9.049c-1.611,2.616-3.723,3.823-6.334,3.62h-7.844V64.17z M659.297,119.977h-56.408V90.414h65.459
		v20.814C668.545,117.262,665.529,120.175,659.297,119.977z M657.186,98.86h-43.438v12.368h41.025
		c1.607,0.202,2.412-0.604,2.412-2.413V98.86z"/>
	<path fill="#004F87" d="M681.018,52.104h67.57v9.352h-27.449v41.025h28.053v9.352h-28.053v8.145H708.77v-8.145h-28.355v-9.352
		h28.355V61.455h-27.752V52.104z M686.447,93.431l-4.525-28.054h12.066l3.922,22.624c0.199,1.409,0.801,2.013,1.811,1.81h6.637v9.05
		h-13.273C689.059,99.063,686.848,97.253,686.447,93.431z M731.998,87.699l4.223-22.322h11.162l-3.922,27.148
		c-0.604,4.426-2.818,6.538-6.637,6.335h-12.971v-9.352h6.033C731.291,89.509,731.998,88.906,731.998,87.699z"/>
	<path fill="#004F87" d="M757.035,70.807l13.574-18.401h12.971L770.006,71.41h41.93c1.207,0.405,1.811-0.401,1.811-2.414V60.55
		h10.559v12.066c0.604,6.236-2.014,8.951-7.844,8.145h-59.426V70.807z M757.336,121.484V85.286h66.666v26.848
		c0.4,6.834-3.016,9.954-10.256,9.351H757.336z M813.445,94.638h-45.25v17.797h42.535c1.809,0.203,2.715-0.801,2.715-3.017V94.638z"
		/>
</g>
<g>
	<path fill="#004F87" d="M106.467,26.671c45.592,0,82.984,35.082,86.668,79.724h13.328c-3.715-51.987-47.063-93.011-99.996-93.011
		c-55.371,0-100.26,44.887-100.26,100.258h13.287C19.495,65.608,58.434,26.671,106.467,26.671z"/>
	<path fill="#004F87" d="M106.467,200.614c-48.033,0-86.973-38.939-86.973-86.973H6.208c0,55.371,44.889,100.26,100.26,100.26
		c52.231,0,95.127-39.943,99.824-90.949h-13.35C188.296,166.606,151.355,200.614,106.467,200.614z"/>
</g>
<linearGradient id="SVGID_1_" gradientUnits="userSpaceOnUse" x1="48.7935" y1="127.96" x2="123.022" y2="127.96">
	<stop  offset="0" style="stop-color:#29426C"/>
	<stop  offset="1" style="stop-color:#005EAD"/>
</linearGradient>
<path fill="url(#SVGID_1_)" d="M79.002,166.368H48.793V89.552h9.926v5.609h6.042v-5.609h9.926v5.631h6.042v-5.631h11.652
	l18.988,38.408c0,0,2.158,6.904,11.652,4.314l-13.379,18.559c0,0-7.531,5.818-13.378-5.18l-17.24-37.184"/>
<linearGradient id="SVGID_2_" gradientUnits="userSpaceOnUse" x1="105.7603" y1="127.8799" x2="163.8774" y2="127.8799">
	<stop  offset="0" style="stop-color:#005EAD"/>
	<stop  offset="1" style="stop-color:#29426D"/>
</linearGradient>
<path fill="url(#SVGID_2_)" d="M105.76,112.569l13.666-23.018h10.501v5.609l6.63,0.021l-0.013-5.631h10.502v5.631h6.474v-5.631
	h10.357v76.656h-30.969V108.47l-5.632,14.461c-0.001,0-0.533,1.186-1.257,2.855c-2.434,5.621-8.689,9.32-14.354-2.145
	L105.76,112.569z"/>
<polygon fill="#ED1E23" points="105.76,38.876 109.192,49.44 120.301,49.44 111.314,55.97 114.747,66.536 105.76,60.005 
	96.773,66.536 100.206,55.97 91.218,49.44 102.327,49.44 "/>
<polygon fill="#ED1E23" points="76.018,56.488 79.159,61.394 84.795,59.923 81.1,64.427 84.241,69.333 78.817,67.21 75.121,71.713 
	75.463,65.898 70.039,63.774 75.675,62.304 "/>
<polygon fill="#ED1E23" points="52.949,70.114 57.592,73.632 62.373,70.303 60.461,75.806 65.105,79.323 59.281,79.206 
	57.371,84.71 55.681,79.136 49.857,79.019 54.638,75.689 "/>
<polygon fill="#ED1E23" points="134.486,56.468 134.917,62.277 140.576,63.663 135.184,65.868 135.615,71.677 131.852,67.231 
	126.459,69.437 129.526,64.483 125.762,60.036 131.42,61.422 "/>
<polygon fill="#ED1E23" points="160.208,70.485 158.055,75.897 162.54,79.618 156.726,79.243 154.574,84.656 153.133,79.011 
	147.32,78.638 152.243,75.522 150.803,69.878 155.286,73.599 "/>
<g>
	<path fill="#004F87" d="M217.3,134.313h32.994v35.181h-2.904v-1.886h-27.187v1.923H217.3V134.313z M247.39,136.99h-27.187v27.941
		h27.187V136.99z M221.938,158.37h10.407v-7.466h-9.087v-2.564h9.087v-5.053h-9.804v-2.563h22.473v2.563h-9.879v5.053h9.125v2.564
		h-9.125v7.466h10.482v2.564h-23.68V158.37z M237.096,153.317l2.112-1.584c1.382,1.434,2.564,2.778,3.544,4.035l-2.225,1.696
		C239.321,155.832,238.177,154.449,237.096,153.317z"/>
	<path fill="#004F87" d="M254.252,165.723c7.591-2.174,13.637-5.725,18.137-10.651c-0.352-0.729-0.761-1.427-1.226-2.093
		c-3.746,3.871-8.918,6.85-15.517,8.937c-0.377-0.854-0.83-1.71-1.357-2.564c6.473-1.784,11.507-4.619,15.102-8.503
		c-0.415-0.415-0.867-0.823-1.357-1.226c-3.331,2.363-7.422,4.299-12.273,5.807c-0.478-0.829-1.043-1.722-1.697-2.677
		c5.995-1.332,10.796-3.569,14.404-6.712h-9.502v-2.715h26.923v2.715h-13.688c-0.641,0.679-1.332,1.332-2.074,1.961
		c1.973,1.597,3.507,3.381,4.6,5.354c3.934-1.923,7.429-3.896,10.483-5.92l1.772,2.413c-2.049,1.231-4.229,2.451-6.542,3.657
		c2.225,4.827,5.838,8.195,10.841,10.105c-0.83,0.955-1.609,1.936-2.338,2.941c-4.915-2.514-8.56-6.448-10.935-11.803
		c-0.716,0.353-1.445,0.711-2.187,1.075c1.433,5.342,1.207,9.231-0.679,11.67c-0.905,1.081-2.64,1.622-5.204,1.622
		c-1.006,0-2.589-0.038-4.751-0.113c-0.151-0.98-0.339-2.024-0.565-3.13c1.96,0.227,3.708,0.339,5.241,0.339
		c2.715,0.151,4.035-1.482,3.959-4.901c-0.038-1.131-0.176-2.219-0.415-3.262c-4.45,4.387-10.382,7.812-17.798,10.275
		C255.233,167.495,254.78,166.628,254.252,165.723z M255.082,137.142h17.043c-0.742-1.119-1.609-2.313-2.602-3.582l2.639-1.697
		c1.131,1.383,2.162,2.753,3.092,4.11l-1.923,1.169h16.327v6.447h-3.017v-3.657h-28.544v3.657h-3.017V137.142z"/>
	<path fill="#004F87" d="M292.525,149.207h7.73c0.151-2.313,0.238-5.229,0.264-8.747h-3.205c-0.754,2.137-1.533,4.047-2.338,5.731
		c-1.131-0.478-2.086-0.855-2.866-1.132c1.961-3.745,3.52-8.019,4.676-12.82l2.941,0.679c-0.478,1.71-0.968,3.318-1.471,4.826h11.5
		v2.716h-6.222c-0.025,3.469-0.101,6.385-0.226,8.747h7.202v2.716h-7.428c-0.076,0.653-0.151,1.27-0.227,1.848
		c3.192,3.619,5.92,6.875,8.183,9.766l-2.564,1.923c-2.414-3.217-4.563-5.933-6.448-8.145c-1.433,4.826-4.11,8.886-8.031,12.18
		c-0.654-0.88-1.357-1.747-2.112-2.603c4.726-3.82,7.441-8.811,8.145-14.969h-7.503V149.207z M312.057,136.463h16.063v32.126h-2.979
		v-3.809h-10.105v3.809h-2.979V136.463z M325.142,139.253h-10.105v22.813h10.105V139.253z"/>
	<path fill="#004F87" d="M344.259,156.561c0.125,1.056,0.289,2.099,0.49,3.13c-2.263,1.684-4.412,3.355-6.448,5.015
		c-0.502,0.452-1.056,1.03-1.659,1.734l-2.225-2.338c0.804-0.804,1.207-1.91,1.207-3.318v-13.046h-4.789v-2.715h7.692v16.025
		C340.589,159.515,342.5,158.019,344.259,156.561z M336.492,133.069c2.463,2.514,4.424,4.588,5.882,6.222l-2.602,2.148
		c-1.936-2.488-3.771-4.65-5.505-6.485L336.492,133.069z M350.254,156.485l2.526,1.81c-2.991,3.646-6.334,7.277-10.03,10.897
		c-0.629-0.604-1.395-1.282-2.3-2.036C343.92,164.014,347.188,160.457,350.254,156.485z M344.976,134.992h20.776v19.834h-2.903
		v-2.263h-14.97v2.263h-2.903V134.992z M362.849,137.632h-14.97v12.292h14.97V137.632z M357.268,158.445l2.451-1.81
		c2.991,3.192,6.02,6.649,9.087,10.369l-2.715,2.036C363.251,165.371,360.31,161.839,357.268,158.445z"/>
	<path fill="#004F87" d="M373.407,147.511h17.835c1.697-2.501,3.217-4.99,4.563-7.466l2.903,1.848
		c-1.333,1.873-2.728,3.745-4.186,5.618h11.161v2.64h-29.223v2.64c0,4.449-0.339,7.768-1.018,9.954
		c-0.704,2.438-2.036,4.726-3.997,6.863c-0.654-0.805-1.333-1.659-2.036-2.564c1.483-1.584,2.526-3.443,3.129-5.581
		c0.578-2.086,0.868-4.977,0.868-8.672V147.511z M370.314,136.727h17.213c-0.553-1.03-1.163-2.086-1.829-3.167l2.79-1.396
		c0.817,1.332,1.653,2.854,2.508,4.563h15.667v2.677h-36.35V136.727z M378.195,141.553l2.489-1.659
		c1.558,1.961,2.941,3.821,4.147,5.581l-2.677,1.848C381.174,145.663,379.854,143.74,378.195,141.553z"/>
	<path fill="#004F87" d="M407.908,156.334c2.564-3.922,4.487-8.308,5.77-13.159h-5.393v-2.64h5.883v-7.994h2.865v7.994h5.316v2.64
		h-5.316v4.977l1.622-1.508c2.262,2.137,4.084,4.034,5.467,5.693l-2.262,2.112c-1.685-2.137-3.294-4.01-4.827-5.619v20.777h-2.865
		v-20.664c-1.357,4.224-3.017,7.793-4.978,10.709C408.838,158.571,408.411,157.465,407.908,156.334z M421.596,137.82v-2.828h21.418
		v2.752c-1.182,8.748-3.847,15.8-7.994,21.154c2.715,2.74,6.31,5.002,10.784,6.787c-1.081,1.182-1.923,2.225-2.526,3.13
		c-4.324-2.237-7.768-4.726-10.332-7.466c-2.865,2.991-6.862,5.781-11.99,8.37c-0.554-0.904-1.257-1.86-2.111-2.865
		c5.304-2.489,9.351-5.128,12.142-7.919c-3.797-4.775-6.146-11.814-7.052-21.115H421.596z M439.809,137.82H426.95
		c0.754,8.119,2.777,14.366,6.071,18.74C436.49,151.91,438.753,145.663,439.809,137.82z"/>
	<path fill="#004F87" d="M462.772,165.309l11.048,0.226l10.407-0.414c-0.428,1.03-0.829,2.036-1.207,3.017l-11.236,0.075
		l-9.653-0.113c-3.996-0.101-7.001-1.559-9.012-4.374c-1.559,1.332-3.143,2.979-4.751,4.939l-1.621-3.205
		c0.063-0.075,1.734-1.508,5.015-4.299v-12.857h-4.826v-2.79h7.843v16.176C456.676,164.039,459.341,165.245,462.772,165.309z
		 M450.933,132.616c1.936,2.338,3.846,4.751,5.731,7.24l-2.678,1.81c-1.685-2.514-3.469-4.978-5.354-7.391L450.933,132.616z
		 M472.199,151.206l2.375-1.509c2.841,3.721,5.354,7.303,7.542,10.747l-2.715,1.848c-0.565-0.955-1.145-1.91-1.734-2.866
		c-7.14,0.453-12.255,0.88-15.347,1.282c-0.855,0.126-1.748,0.34-2.678,0.642l-1.396-2.716c0.98-0.679,1.798-1.482,2.451-2.413
		c1.709-2.589,3.394-5.593,5.053-9.012h-8.031v-2.865h25.829v2.865h-14.216c-2.174,3.997-4.273,7.504-6.297,10.521
		c3.821-0.227,8.164-0.503,13.028-0.83C474.819,154.977,473.531,153.079,472.199,151.206z M460.246,134.615h21.116v2.865h-21.116
		V134.615z"/>
	<path fill="#004F87" d="M508.511,132.314h2.752v3.093h11.313v2.488h-11.313v2.263h-2.752v-2.263h-8.938v2.263h-2.752v-2.263H485.66
		v-2.488h11.161v-3.093h2.752v3.093h8.938V132.314z M486.791,141.176h34.54v6.9h-2.866v-4.411h-28.808v4.411h-2.866V141.176z
		 M489.958,158.068h28.205v11.501h-2.865v-1.886h-22.474v1.886h-2.866V158.068z M492.674,146.455h22.774v9.427h-2.865v-0.867
		h-17.044v0.867h-2.865V146.455z M515.298,160.406h-22.474v4.939h22.474V160.406z M512.583,148.793h-17.044v3.884h17.044V148.793z"
		/>
	<path fill="#004F87" d="M532.605,152.602h10.03v-5.619h3.092v5.619h12.255v2.715h-12.255v5.165h15.422v2.716h-15.422v6.372h-3.092
		v-6.372h-18.138v-2.716h18.138v-5.165h-13.65v-2.753c1.659-2.287,3.199-4.701,4.619-7.24h-8.126v-2.715h9.578
		c0.804-1.558,1.558-3.167,2.262-4.826l3.055,0.905c-0.641,1.319-1.308,2.627-1.998,3.921h21.417v2.715h-22.888
		C535.547,147.763,534.113,150.188,532.605,152.602z M525.63,134.2h34.351v6.787h-3.017v-4.072h-28.317v4.072h-3.017V134.2z"/>
	<path fill="#004F87" d="M566.354,133.937h30.203v13.763h-2.979v-1.659h-8.466c0.214,2.477,0.534,4.739,0.962,6.787h13.424v2.715
		h-12.745c1.282,4.399,3.192,7.63,5.731,9.691c1.257,1.03,2.237,0.829,2.941-0.604c0.604-1.231,1.056-3.368,1.357-6.41
		c1.156,0.503,2.124,0.867,2.903,1.093c-0.428,2.841-0.942,5.065-1.546,6.675c-0.83,2.137-2.074,3.205-3.733,3.205
		c-1.508,0-2.991-0.642-4.449-1.923c-2.766-2.363-4.852-6.272-6.26-11.728h-14.403v9.842c2.891-0.905,5.97-2.049,9.238-3.432
		c-0.102,1.157-0.113,2.263-0.038,3.318c-4.072,1.383-7.453,2.614-10.144,3.695c-0.301,0.151-0.767,0.39-1.395,0.717l-1.659-2.791
		c0.704-0.502,1.056-1.206,1.056-2.111V133.937z M593.578,136.651h-24.283v6.674h24.283V136.651z M582.096,146.04h-12.801v6.787
		h13.801C582.681,150.754,582.348,148.491,582.096,146.04z"/>
	<path fill="#004F87" d="M602.4,134.2h18.363v2.413H602.4V134.2z M605.191,169.268h-2.489v-19.306h17.911v15.724
		c0,2.362-1.244,3.544-3.733,3.544h-2.903c-0.126-0.88-0.314-1.747-0.565-2.602c1.207,0.101,2.188,0.151,2.941,0.151
		c1.181,0,1.772-0.541,1.772-1.622V152.3h-12.934V169.268z M604.248,139.215h14.856v9.088h-2.488v-0.98h-9.879v0.98h-2.489V139.215z
		 M605.87,158.333h5.807c1.433-2.59,2.362-4.387,2.79-5.393l2.225,1.056c-1.03,1.685-1.948,3.13-2.752,4.337h3.431v2.262h-4.563
		v7.844h-2.338v-7.844h-4.6V158.333z M606.549,154.223l1.81-1.131c0.905,1.206,1.722,2.501,2.451,3.884l-1.961,1.206
		C608.119,156.824,607.353,155.505,606.549,154.223z M616.616,141.478h-9.879v3.582h9.879V141.478z M633.32,158.333l2.526-0.717
		c1.132,3.846,2.086,7.466,2.866,10.859l-2.64,0.679c-0.151-0.679-0.314-1.357-0.49-2.036c-4.776,0.528-9.264,1.043-13.462,1.546
		l-0.565-3.13c2.363-0.15,4.688-0.313,6.976-0.49v-10.181h-3.129v1.244h-2.753v-16.628h5.882v-6.75h2.64v6.75h5.694v15.384h-5.694
		v9.955c1.282-0.101,2.539-0.188,3.771-0.264C634.464,162.543,633.924,160.47,633.32,158.333z M625.402,152.375h3.129v-10.407
		h-3.129V152.375z M634.301,152.375v-10.407h-3.13v10.407H634.301z"/>
	<path fill="#004F87" d="M661.525,132.881l-0.904,1.093c4.197,5.455,9.766,9.565,16.704,12.33c-0.78,1.106-1.446,2.112-1.999,3.017
		c-2.036-0.98-3.972-2.086-5.807-3.318v2.149h-22.059v-1.885c-1.835,1.206-3.796,2.388-5.882,3.544
		c-0.503-0.854-1.132-1.797-1.886-2.828c7.768-3.896,13.638-8.597,17.609-14.102H661.525z M645.387,152.94h26.282v16.742h-3.017
		v-2.526h-20.249v2.602h-3.017V152.94z M668.652,155.693h-20.249v8.785h20.249V155.693z M658.622,136.161
		c-2.563,3.293-5.92,6.397-10.067,9.313h20.173C664.906,142.86,661.538,139.756,658.622,136.161z"/>
	<path fill="#004F87" d="M678.306,154.75c2.351-0.791,4.676-1.583,6.976-2.375v-8.861h-2.979c-0.516,2.389-1.145,4.575-1.886,6.562
		c-0.779-0.554-1.608-1.106-2.488-1.659c1.407-3.318,2.325-7.454,2.753-12.406l2.715,0.453c-0.164,1.571-0.371,3.079-0.623,4.524
		h2.508v-8.446h2.828v8.446h4.714v2.526h-4.714v7.881c1.42-0.503,2.828-1.006,4.224-1.509c0.125,1.106,0.264,2.062,0.414,2.866
		c-1.458,0.516-3.004,1.074-4.638,1.678v15.026h-2.828v-13.971c-2.023,0.768-4.16,1.591-6.41,2.47L678.306,154.75z M691.466,145.738
		h10.369v-5.58h-8.786v-2.564h8.786v-5.241h2.941v5.241h9.162v2.564h-9.162v5.58h10.896v2.564h-24.207V145.738z M692.257,153.393
		h15.158v-3.996h2.941v3.996h5.505v2.564h-5.505v8.296c0,3.142-1.584,4.726-4.751,4.751c-1.131,0.024-2.841,0.012-5.128-0.038
		c-0.151-0.98-0.34-2.062-0.565-3.243c1.985,0.201,3.695,0.302,5.128,0.302c1.584,0,2.375-0.88,2.375-2.639v-7.429h-15.158V153.393z
		 M694.369,158.559l2.187-1.734c1.811,1.986,3.368,3.796,4.676,5.43l-2.413,1.848C697.386,162.166,695.902,160.318,694.369,158.559z
		"/>
	<path fill="#004F87" d="M716.767,144.833c4.901-3.72,8.785-8.006,11.651-12.857l3.167,0.792c-0.679,1.081-1.401,2.137-2.168,3.167
		h14.913v2.678c-1.408,1.646-2.879,3.293-4.412,4.939h10.181v13.763h-3.016v-1.319h-22.662v6.674c0,1.709,0.792,2.564,2.375,2.564
		h20.362c1.684,0,2.702-0.528,3.054-1.584c0.478-1.533,0.817-3.456,1.019-5.77c0.729,0.327,1.76,0.717,3.092,1.169
		c-0.352,2.363-0.717,4.186-1.094,5.468c-0.653,2.388-2.488,3.582-5.505,3.582h-21.267c-3.369,0-5.053-1.722-5.053-5.166v-18.155
		c-0.742,0.666-1.509,1.326-2.301,1.979C718.425,146.128,717.646,145.487,716.767,144.833z M740.521,138.574h-13.179
		c-1.42,1.722-2.967,3.381-4.638,4.978h13.537C737.75,141.842,739.177,140.184,740.521,138.574z M724.421,153.28h9.841v-7.014
		h-9.841V153.28z M747.083,146.267h-9.88v7.014h9.88V146.267z"/>
	<path fill="#004F87" d="M756.058,152.79h16.704v-15.762h-15.008v-2.903h33.333v2.903h-15.158v15.762h16.817v2.903h-16.817v13.876
		h-3.167v-13.876h-16.704V152.79z M759.677,141.176l2.376-1.659c2.815,3.293,5.241,6.474,7.277,9.54l-2.678,1.998
		C764.717,147.913,762.392,144.62,759.677,141.176z M778.87,149.019c2.765-2.915,5.253-6.133,7.466-9.652l2.828,1.81
		c-2.841,3.896-5.493,7.164-7.956,9.804L778.87,149.019z"/>
	<path fill="#004F87" d="M820.875,137.292c3.946,3.67,7.68,7.429,11.199,11.274l-2.678,2.225c-1.006-1.181-2.023-2.344-3.054-3.487
		c-11.287,0.478-19.91,0.886-25.867,1.225c-1.383,0.102-2.715,0.302-3.997,0.604l-1.244-3.242c1.156-0.428,2.199-1.019,3.129-1.772
		c4.299-3.52,8.233-7.579,11.803-12.18l2.828,1.734c-3.771,4.425-7.705,8.359-11.803,11.803c7.705-0.238,15.284-0.516,22.737-0.83
		c-1.722-1.872-3.469-3.695-5.241-5.467L820.875,137.292z M826.418,152.262v17.119h-3.092v-2.489h-20.739v2.489h-3.092v-17.119
		H826.418z M823.326,155.052h-20.739v9.125h20.739V155.052z"/>
</g>
</svg>
